<?xml version="1.0" encoding="utf-8"?>
<!-- Generator: Adobe Illustrator 27.3.1, SVG Export Plug-In . SVG Version: 6.00 Build 0)  -->
<svg version="1.1" id="Layer_1" xmlns="http://www.w3.org/2000/svg" xmlns:xlink="http://www.w3.org/1999/xlink" x="0px" y="0px"
	 viewBox="0 0 841.89 595.28" style="enable-background:new 0 0 841.89 595.28;" xml:space="preserve">
<g>
	<path d="M165.42,227.2v103.83l21.91-105.42h0.95v160.35h-9.84V280.54l-21.91,107.01h-0.95V227.2H165.42z"/>
	<path d="M222.15,283.08c-2.54,0-4.76-3.49-4.76-13.97c0-19.69,6.11-39.8,1.19-39.8c-5.18,0-9.45,32.17-9.45,60.43
		c0,36.2,11.11,72.71,22.86,96.21H217.7c-7.94-18.73-15.88-50.81-15.88-81.29c0-47.79,9.84-78.43,16.83-78.43
		c6.35,0,8.89,17.78,8.89,35.25C227.55,274.83,225,283.08,222.15,283.08z"/>
	<path d="M258.66,283.08c-2.54,0-4.76-3.49-4.76-13.97c0-19.69,6.11-39.8,1.19-39.8c-5.18,0-9.45,32.17-9.45,60.43
		c0,36.2,11.11,72.71,22.86,96.21h-14.29c-7.94-18.73-15.88-50.81-15.88-81.29c0-47.79,9.84-78.43,16.83-78.43
		c6.35,0,8.89,17.78,8.89,35.25C264.06,274.83,261.52,283.08,258.66,283.08z"/>
	<path d="M350.21,298.96h-18.73c0.95,36.2,7.3,59.38,17.46,87h-13.65c-7.62-25.72-11.75-49.85-11.75-73.03
		c0-28.26,8.89-87.32,16.51-87.32C347.04,225.61,352.12,269.11,350.21,298.96z M343.86,296.42c0-26.36-4.45-55.89-7.3-55.89
		c-2.54,0-5.08,25.4-5.08,49.85v6.03H343.86z"/>
	<path d="M393.71,383.42h7.62v28.9h-8.57v-26.36h-30.48v26.36h-8.57v-28.9h6.99c6.35-14.61,7.94-41.91,7.94-63.82v-89.86h-6.99
		v-2.54h32.07V383.42z M371.48,320.24c0,21.91-1.91,47.63-7.62,63.19h20.01V229.74h-12.38V320.24z"/>
	<path d="M439.87,307.22c0,36.52-7.94,81.29-15.24,81.29c-9.84,0-17.15-38.42-17.15-76.84c0-36.83,6.99-85.42,15.56-85.42
		C433.2,226.24,439.87,271.65,439.87,307.22z M413.83,298.33c0,33.34,7.94,75.26,14.29,75.26c2.54,0,4.45-24.45,4.45-48.58
		c0-44.77-8.89-83.19-12.7-83.19C417.01,241.8,413.83,261.17,413.83,298.33z"/>
	<path d="M453.25,385.96V227.2h10.8c9.21,3.49,15.5,15.88,15.5,28.26c0,13.34-5.02,27.16-10.1,35.74
		c9.84,12.7,13.34,27.13,13.34,43.96c0,25.09-13.34,46.36-19.69,50.81H453.25z M463.09,295.47c5.72-7.94,9.84-19.69,9.84-33.34
		c0-10.8-3.49-20.64-9.84-26.04V295.47z M463.09,383.42c8.26-11.43,12.07-28.26,12.07-46.36c0-15.88-5.71-31.12-12.07-39.37V383.42z
		"/>
	<path d="M512.79,385.96l-2.86-33.02h-13.34l-2.86,33.02h-3.81l15.56-160.04h0.95l16.19,160.04H512.79z M496.59,350.08h13.02
		l-6.67-74.94L496.59,350.08z"/>
	<path d="M518.48,231.01v-3.81h44.77v3.81h-17.46v154.96h-9.84V231.01H518.48z"/>
	<path d="M592.63,299.06H573.9c0.95,36.2,6.91,59.28,17.07,86.9h-13.26c-7.86-27.1-11.75-49.85-11.75-73.03
		c0-33.72,8.89-87.32,16.51-87.32C589.46,225.61,594.54,269.21,592.63,299.06z M586.28,296.42c0-26.36-4.45-55.89-7.3-55.89
		c-2.54,0-5.08,25.4-5.08,49.85v6.03H586.28z"/>
	<path d="M276.31,330.4c2.54,0,4.57,3.49,4.57,13.97c0,21.27-6.86,39.25-1.79,39.25c2.77,0,6.23-11.8,6.23-57.46v-96.32h-5.71v-2.64
		h30.8v158.77h-9.84V229.84h-12.38v90.4c0,47.36-2.09,66.8-9.21,66.8c-5.38,0-8.26-12.45-8.26-34.55
		C270.71,339.14,272.6,330.4,276.31,330.4z"/>
	<path d="M602.33,330.4c2.54,0,4.57,3.49,4.57,13.97c0,21.27-6.86,39.25-1.79,39.25c2.77,0,6.23-11.8,6.23-57.46v-96.32h-5.71v-2.64
		h30.8v158.77h-9.84V229.84H614.2v90.4c0,47.36-2.09,66.8-9.21,66.8c-5.38,0-8.26-12.45-8.26-34.55
		C596.73,339.14,598.62,330.4,602.33,330.4z"/>
	<path d="M660.28,227.2v103.54l21.91-105.13h0.95v160.35h-9.84V281.14l-21.91,106.42h-0.95V227.2H660.28z"/>
</g>
<g>
	<path d="M252.08,170.13c-0.2,4.22-1.22,5.06-5.6,5.16c-6.31,0.13-8.1,2.19-8.44,7.19h0.2c1.32-2.53,3.54-3.64,7.32-3.64
		c4.76,0,7.66,3.07,7.66,8.07c0,5.06-3.37,8.5-8.34,8.5c-5.4,0-8.61-3.95-8.61-10.63c0-8.61,2.4-12.49,10.83-12.83
		c3.21-0.14,3.75-0.54,3.95-1.82H252.08z M249.52,187.2c0-4.42-1.65-6.85-4.62-6.85s-4.89,2.7-4.89,6.85c0,4.05,1.89,6.65,4.89,6.65
		C247.73,193.85,249.52,191.32,249.52,187.2z"/>
	<path d="M268.85,182.68c0.54-0.61,0.78-1.05,0.78-1.42c0-0.67-0.64-0.57-1.52-0.57h-0.44v-1.52h7.7v1.52h-0.64
		c-1.52,0-1.86,0.3-1.86,1.62v9.89c0,1.11,0.27,1.32,1.82,1.32h0.68v1.52h-8.07v-1.52h0.78c1.25,0,1.55-0.24,1.55-1.32v-8.1
		l-7.16,7.86c0,0-0.64,0.71-0.64,1.05c0,0.4,0.3,0.51,1.76,0.51h0.24v1.52h-7.73v-1.52h0.84c1.38,0,1.65-0.24,1.65-1.45v-9.75
		c0-1.35-0.3-1.62-1.62-1.62h-0.88v-1.52h8.07v1.52h-0.57c-1.38,0-1.76,0.34-1.76,1.62v8.07L268.85,182.68z"/>
	<path d="M292.85,191.36c-0.84,2.53-3.24,4.02-6.51,4.02c-4.93,0-8.1-3.21-8.1-8.13c0-5.16,3.27-8.4,8.54-8.4
		c3.31,0,6.07,1.99,6.07,4.42c0,1.32-0.88,2.3-2.09,2.3c-1.25,0-2.13-0.81-2.13-1.96c0-0.95,0.88-1.42,0.88-1.92
		c0-0.64-1.22-1.32-2.36-1.32c-3.1,0-5.2,2.67-5.2,6.58c0,3.95,2.09,6.58,5.23,6.58c2.23,0,3.75-0.94,4.62-2.83L292.85,191.36z"/>
	<path d="M295.58,186.02v-6.85h15.86v6.85h-1.38c-0.54-4.08-1.25-5.33-2.94-5.33h-0.84c-0.81,0-1.15,0.44-1.15,1.42v9.82
		c0,1.35,0.27,1.59,1.82,1.59h1.01v1.52h-8.91v-1.52h1.15c1.25,0,1.69-0.37,1.69-1.48v-10.09c0-0.81-0.41-1.25-1.11-1.25h-0.98
		c-1.62,0-2.33,1.35-2.84,5.33H295.58z"/>
	<path d="M314.38,199.76h0.78c1.28,0,1.72-0.4,1.72-1.62v-15.66c0-1.35-0.37-1.75-1.62-1.75h-0.88v-1.55l5.57-0.47v3.21h0.17
		c1.28-2.09,3.04-3.07,5.43-3.07c4.52,0,7.19,3.07,7.19,8.37c0,4.83-3.17,8.2-7.66,8.2c-2.13,0-3.98-0.91-4.96-2.4h-0.17l0.17,1.45
		v3.68c0,1.32,0.27,1.62,1.55,1.62h0.95v1.52h-8.23V199.76z M324.8,180.69c-2.87,0-4.69,2.43-4.69,6.21v0.74
		c0,3.88,1.69,6.24,4.46,6.24c2.77,0,4.45-2.53,4.45-6.68C329.02,182.95,327.54,180.69,324.8,180.69z"/>
	<path d="M344.07,195.37c-4.96,0-8.47-3.41-8.47-8.27c0-4.76,3.58-8.27,8.47-8.27s8.47,3.51,8.47,8.27
		C352.54,191.86,348.97,195.37,344.07,195.37z M344.07,193.85c3.04,0,4.76-2.43,4.76-6.75c0-4.25-1.75-6.75-4.76-6.75
		c-3.07,0-4.76,2.4-4.76,6.75C339.31,191.39,341.03,193.85,344.07,193.85z"/>
	<path d="M365.09,166.21h1.69v36.59h-1.69V166.21z"/>
	<path d="M391.92,186.02c-0.57-4.39-1.32-5.33-4.15-5.33h-1.42c-0.84,0-1.25,0.47-1.25,1.42v9.82c0,1.35,0.27,1.59,1.82,1.59h1.69
		v1.52h-9.25v-1.52h0.81c1.25,0,1.69-0.37,1.69-1.48v-9.42c0-1.48-0.44-1.92-1.79-1.92h-0.71v-1.52h13.94v6.85H391.92z"/>
	<path d="M404.44,195.37c-4.96,0-8.47-3.41-8.47-8.27c0-4.76,3.58-8.27,8.47-8.27c4.89,0,8.47,3.51,8.47,8.27
		C412.91,191.86,409.34,195.37,404.44,195.37z M404.44,193.85c3.04,0,4.76-2.43,4.76-6.75c0-4.25-1.75-6.75-4.76-6.75
		c-3.07,0-4.76,2.4-4.76,6.75C399.68,191.39,401.4,193.85,404.44,193.85z"/>
	<path d="M430.39,191.36c-0.84,2.53-3.24,4.02-6.51,4.02c-4.93,0-8.1-3.21-8.1-8.13c0-5.16,3.27-8.4,8.54-8.4
		c3.31,0,6.08,1.99,6.08,4.42c0,1.32-0.88,2.3-2.09,2.3c-1.25,0-2.13-0.81-2.13-1.96c0-0.95,0.88-1.42,0.88-1.92
		c0-0.64-1.21-1.32-2.36-1.32c-3.11,0-5.2,2.67-5.2,6.58c0,3.95,2.09,6.58,5.23,6.58c2.23,0,3.75-0.94,4.62-2.83L430.39,191.36z"/>
	<path d="M433.12,186.02v-6.85h15.86v6.85h-1.38c-0.54-4.08-1.25-5.33-2.94-5.33h-0.84c-0.81,0-1.15,0.44-1.15,1.42v9.82
		c0,1.35,0.27,1.59,1.82,1.59h1.01v1.52h-8.91v-1.52h1.15c1.25,0,1.69-0.37,1.69-1.48v-10.09c0-0.81-0.41-1.25-1.11-1.25h-0.98
		c-1.62,0-2.33,1.35-2.83,5.33H433.12z"/>
	<path d="M455.23,187.37c0.2,3.98,2.36,6.28,5.5,6.28c2.09,0,3.95-1.11,4.79-2.9l1.28,0.61c-0.74,2.36-3.71,4.15-6.92,4.15
		c-5.03,0-8.17-3.24-8.17-8.4c0-4.93,3.38-8.4,8.24-8.4c4.45,0,7.36,3.11,7.36,7.9v0.78H455.23z M455.26,185.85h7.39
		c0.74,0,1.01-0.3,1.01-1.08c0-2.77-1.48-4.56-3.78-4.56C457.56,180.22,455.53,182.24,455.26,185.85z"/>
	<path d="M480.34,179.17c3.75,0,5.77,1.38,5.77,3.95c0,1.79-1.82,3.24-4.25,3.41v0.2c3.1,0.2,4.76,1.65,4.76,4.15
		c0,2.7-2.53,4.15-7.16,4.15h-9.28v-1.52h0.81c1.21,0,1.69-0.44,1.69-1.69v-9.62c0-1.15-0.44-1.52-1.79-1.52h-0.71v-1.52H480.34z
		 M475.92,185.99h3.07c2.4,0,3.65-0.88,3.65-2.57s-1.32-2.73-3.41-2.73h-1.99c-1.05,0-1.32,0.27-1.32,1.28V185.99z M475.92,187.61
		v4.05c0,1.52,0.3,1.86,1.82,1.86h1.65c1.99,0,3.58-1.32,3.58-3c0-1.92-1.35-2.9-4.02-2.9H475.92z"/>
	<path d="M498.22,195.37c-4.96,0-8.47-3.41-8.47-8.27c0-4.76,3.58-8.27,8.47-8.27c4.89,0,8.47,3.51,8.47,8.27
		C506.69,191.86,503.12,195.37,498.22,195.37z M498.22,193.85c3.04,0,4.76-2.43,4.76-6.75c0-4.25-1.75-6.75-4.76-6.75
		c-3.07,0-4.76,2.4-4.76,6.75C493.46,191.39,495.18,193.85,498.22,193.85z"/>
	<path d="M522.32,182.68c0.54-0.61,0.78-1.05,0.78-1.42c0-0.67-0.64-0.57-1.52-0.57h-0.44v-1.52h7.7v1.52h-0.64
		c-1.52,0-1.86,0.3-1.86,1.62v9.89c0,1.11,0.27,1.32,1.82,1.32h0.68v1.52h-8.07v-1.52h0.78c1.25,0,1.55-0.24,1.55-1.32v-8.1
		l-7.15,7.86c0,0-0.64,0.71-0.64,1.05c0,0.4,0.3,0.51,1.75,0.51h0.24v1.52h-7.73v-1.52h0.84c1.38,0,1.65-0.24,1.65-1.45v-9.75
		c0-1.35-0.3-1.62-1.62-1.62h-0.88v-1.52h8.07v1.52h-0.57c-1.38,0-1.75,0.34-1.75,1.62v8.07L522.32,182.68z M522.05,174.41
		c0-0.74-1.08-0.74-1.08-1.82c0-0.78,0.68-1.55,1.82-1.55c1.18,0,2.06,0.88,2.06,2.26c0,1.99-2.23,3.51-5.7,3.51
		c-3.61,0-5.7-1.52-5.7-3.51c0-1.21,0.88-2.26,2.06-2.26c1.25,0,1.82,0.78,1.82,1.55c0,1.08-1.08,1.08-1.08,1.82
		c0,0.57,1.25,1.05,2.9,1.05S522.05,174.99,522.05,174.41z"/>
	<path d="M544.99,195.03c-2.8,0-3.98,1.48-3.98,5.06h-1.45v-6.65h2.4c1.82-2.29,2.6-6.11,2.6-11.34c0-1.08-0.54-1.42-2.19-1.42
		h-0.51v-1.52h15.66v1.52h-1.28c-0.98,0-1.21,0.27-1.21,1.28v10.19c0,0.95,0.34,1.28,1.25,1.28h1.82v6.65h-1.45
		c0-3.65-0.94-5.06-3.41-5.06H544.99z M551.78,182.07c0-1.18-0.17-1.38-1.35-1.38h-2.6c-1.11,0-1.45,0.34-1.45,1.48
		c0,4.93-0.74,9.01-2.33,11.27h6.35c1.05,0,1.38-0.3,1.38-1.25V182.07z"/>
	<path d="M569.02,195.37c-4.96,0-8.47-3.41-8.47-8.27c0-4.76,3.58-8.27,8.47-8.27c4.89,0,8.47,3.51,8.47,8.27
		C577.49,191.86,573.91,195.37,569.02,195.37z M569.02,193.85c3.04,0,4.76-2.43,4.76-6.75c0-4.25-1.75-6.75-4.76-6.75
		c-3.07,0-4.76,2.4-4.76,6.75C564.26,191.39,565.98,193.85,569.02,193.85z"/>
	<path d="M591.12,194.36h-0.81l-5.97-13.97v10.97c0,1.62,0.54,2.16,2.09,2.16h0.24v1.52h-6.51v-1.52h0.47
		c1.55,0,2.02-0.51,2.02-2.19v-8.67c0-1.55-0.41-1.96-1.82-1.96h-0.68v-1.52h6.75l4.56,10.9l4.42-10.9h6.55v1.52h-0.74
		c-1.38,0-1.75,0.34-1.75,1.52v9.69c0,1.35,0.27,1.62,1.69,1.62h0.81v1.52h-7.73v-1.52h0.47c1.35,0,1.69-0.3,1.69-1.52v-11.58
		L591.12,194.36z"/>
</g>
</svg>
