<svg xmlns="http://www.w3.org/2000/svg" xmlns:xlink="http://www.w3.org/1999/xlink" width="3178" zoomAndPan="magnify" viewBox="0 0 2383.92 1417.499962" height="1889" preserveAspectRatio="xMidYMid meet" version="1.0"><path fill="#000000" d="M 55.277344 395.074219 L 55.277344 856.871094 L 152.71875 388 L 156.945312 388 L 156.945312 1101.179688 L 113.179688 1101.179688 L 113.179688 632.308594 L 15.738281 1108.25 L 11.511719 1108.25 L 11.511719 395.074219 Z M 55.277344 395.074219 " fill-opacity="1" fill-rule="nonzero"/><path fill="#000000" d="M 307.578125 643.605469 C 296.28125 643.605469 286.40625 628.085938 286.40625 581.472656 C 286.40625 493.898438 313.582031 404.457031 291.699219 404.457031 C 268.664062 404.457031 249.671875 547.539062 249.671875 673.226562 C 249.671875 834.230469 299.082031 996.613281 351.339844 1101.132812 L 287.785156 1101.132812 C 252.472656 1017.828125 217.160156 875.148438 217.160156 739.585938 C 217.160156 527.035156 260.925781 390.757812 292.011719 390.757812 C 320.253906 390.757812 331.550781 469.835938 331.550781 547.539062 C 331.59375 606.914062 320.253906 643.605469 307.578125 643.605469 Z M 307.578125 643.605469 " fill-opacity="1" fill-rule="nonzero"/><path fill="#000000" d="M 469.953125 643.605469 C 458.65625 643.605469 448.78125 628.085938 448.78125 581.472656 C 448.78125 493.898438 475.957031 404.457031 454.074219 404.457031 C 431.039062 404.457031 412.046875 547.539062 412.046875 673.226562 C 412.046875 834.230469 461.457031 996.613281 513.714844 1101.132812 L 450.160156 1101.132812 C 414.847656 1017.828125 379.535156 875.148438 379.535156 739.585938 C 379.535156 527.035156 423.300781 390.757812 454.386719 390.757812 C 482.628906 390.757812 493.925781 469.835938 493.925781 547.539062 C 493.96875 606.914062 482.671875 643.605469 469.953125 643.605469 Z M 469.953125 643.605469 " fill-opacity="1" fill-rule="nonzero"/><path fill="#000000" d="M 877.113281 714.234375 L 793.8125 714.234375 C 798.039062 875.238281 826.28125 978.335938 871.464844 1101.179688 L 810.757812 1101.179688 C 776.867188 986.785156 758.5 879.464844 758.5 776.367188 C 758.5 650.679688 798.039062 388 831.929688 388 C 863.015625 388 885.609375 581.472656 877.113281 714.234375 Z M 848.871094 702.9375 C 848.871094 585.699219 829.082031 454.359375 816.40625 454.359375 C 805.109375 454.359375 793.8125 567.328125 793.8125 676.074219 L 793.8125 702.894531 L 848.871094 702.894531 Z M 848.871094 702.9375 " fill-opacity="1" fill-rule="nonzero"/><path fill="#000000" d="M 1070.578125 1089.882812 L 1104.464844 1089.882812 L 1104.464844 1218.417969 L 1066.351562 1218.417969 L 1066.351562 1101.179688 L 930.792969 1101.179688 L 930.792969 1218.417969 L 892.679688 1218.417969 L 892.679688 1089.882812 L 923.765625 1089.882812 C 952.007812 1024.902344 959.078125 903.480469 959.078125 806.035156 L 959.078125 406.371094 L 927.992188 406.371094 L 927.992188 395.074219 L 1070.621094 395.074219 L 1070.621094 1089.882812 Z M 971.710938 808.878906 C 971.710938 906.328125 963.214844 1020.722656 937.820312 1089.925781 L 1026.8125 1089.925781 L 1026.8125 406.371094 L 971.753906 406.371094 L 971.753906 808.878906 Z M 971.710938 808.878906 " fill-opacity="1" fill-rule="nonzero"/><path fill="#000000" d="M 1275.871094 750.972656 C 1275.871094 913.398438 1240.558594 1112.519531 1208.089844 1112.519531 C 1164.328125 1112.519531 1131.816406 941.640625 1131.816406 770.765625 C 1131.816406 606.957031 1162.90625 390.847656 1201.019531 390.847656 C 1246.203125 390.804688 1275.871094 592.769531 1275.871094 750.972656 Z M 1160.058594 711.433594 C 1160.058594 859.714844 1195.371094 1046.160156 1223.613281 1046.160156 C 1234.910156 1046.160156 1243.402344 937.417969 1243.402344 830.09375 C 1243.402344 630.976562 1203.867188 460.097656 1186.921875 460.097656 C 1174.203125 460.007812 1160.058594 546.160156 1160.058594 711.433594 Z M 1160.058594 711.433594 " fill-opacity="1" fill-rule="nonzero"/><path fill="#000000" d="M 1335.375 1101.179688 L 1335.375 395.074219 L 1383.40625 395.074219 C 1424.367188 410.59375 1452.34375 465.703125 1452.34375 520.761719 C 1452.34375 580.09375 1430.015625 641.5625 1407.421875 679.722656 C 1451.1875 736.207031 1466.753906 800.386719 1466.753906 875.238281 C 1466.753906 986.828125 1407.421875 1081.429688 1379.183594 1101.222656 L 1335.375 1101.222656 Z M 1379.136719 698.710938 C 1404.578125 663.398438 1422.902344 611.140625 1422.902344 550.429688 C 1422.902344 502.394531 1407.378906 458.628906 1379.136719 434.613281 Z M 1379.136719 1089.882812 C 1415.875 1039.046875 1432.820312 964.191406 1432.820312 883.691406 C 1432.820312 813.0625 1407.425781 745.28125 1379.136719 708.585938 Z M 1379.136719 1089.882812 " fill-opacity="1" fill-rule="nonzero"/><path fill="#000000" d="M 1600.175781 1101.179688 L 1587.457031 954.316406 L 1528.125 954.316406 L 1515.40625 1101.179688 L 1498.460938 1101.179688 L 1567.664062 389.378906 L 1571.890625 389.378906 L 1643.894531 1101.179688 Z M 1528.125 941.597656 L 1586.03125 941.597656 L 1556.367188 608.292969 Z M 1528.125 941.597656 " fill-opacity="1" fill-rule="nonzero"/><path fill="#000000" d="M 1625.480469 412.019531 L 1625.480469 395.074219 L 1824.589844 395.074219 L 1824.589844 412.019531 L 1746.941406 412.019531 L 1746.941406 1101.222656 L 1703.175781 1101.222656 L 1703.175781 412.019531 Z M 1625.480469 412.019531 " fill-opacity="1" fill-rule="nonzero"/><path fill="#000000" d="M 1955.257812 714.679688 L 1871.957031 714.679688 C 1876.183594 875.683594 1902.6875 978.335938 1947.875 1101.179688 L 1888.902344 1101.179688 C 1853.945312 980.648438 1836.644531 879.464844 1836.644531 776.367188 C 1836.644531 626.394531 1876.183594 388 1910.070312 388 C 1941.160156 388 1963.75 581.917969 1955.257812 714.679688 Z M 1927.015625 702.9375 C 1927.015625 585.699219 1907.226562 454.359375 1894.550781 454.359375 C 1883.253906 454.359375 1871.957031 567.328125 1871.957031 676.074219 L 1871.957031 702.894531 L 1927.015625 702.894531 Z M 1927.015625 702.9375 " fill-opacity="1" fill-rule="nonzero"/><path fill="#000000" d="M 548.449219 854.066406 C 559.746094 854.066406 568.773438 869.589844 568.773438 916.203125 C 568.773438 1010.800781 538.265625 1090.769531 560.8125 1090.769531 C 573.132812 1090.769531 588.519531 1038.289062 588.519531 835.210938 L 588.519531 406.816406 L 563.125 406.816406 L 563.125 395.074219 L 700.105469 395.074219 L 700.105469 1101.222656 L 656.34375 1101.222656 L 656.34375 406.816406 L 601.285156 406.816406 L 601.285156 808.878906 C 601.285156 1019.519531 591.988281 1105.980469 560.324219 1105.980469 C 536.398438 1105.980469 523.589844 1050.609375 523.589844 952.316406 C 523.542969 892.941406 531.949219 854.066406 548.449219 854.066406 Z M 548.449219 854.066406 " fill-opacity="1" fill-rule="nonzero"/><path fill="#000000" d="M 1998.398438 854.066406 C 2009.691406 854.066406 2018.722656 869.589844 2018.722656 916.203125 C 2018.722656 1010.800781 1988.210938 1090.769531 2010.761719 1090.769531 C 2023.082031 1090.769531 2038.46875 1038.289062 2038.46875 835.210938 L 2038.46875 406.816406 L 2013.074219 406.816406 L 2013.074219 395.074219 L 2150.054688 395.074219 L 2150.054688 1101.222656 L 2106.289062 1101.222656 L 2106.289062 406.816406 L 2051.1875 406.816406 L 2051.1875 808.878906 C 2051.1875 1019.519531 2041.890625 1105.980469 2010.226562 1105.980469 C 1986.300781 1105.980469 1973.492188 1050.609375 1973.492188 952.316406 C 1973.492188 892.941406 1981.898438 854.066406 1998.398438 854.066406 Z M 1998.398438 854.066406 " fill-opacity="1" fill-rule="nonzero"/><path fill="#000000" d="M 2256.125 395.074219 L 2256.125 855.582031 L 2353.566406 388 L 2357.792969 388 L 2357.792969 1101.179688 L 2314.03125 1101.179688 L 2314.03125 634.976562 L 2216.585938 1108.292969 L 2212.363281 1108.292969 L 2212.363281 395.074219 Z M 2256.125 395.074219 " fill-opacity="1" fill-rule="nonzero"/><path fill="#000000" d="M 440.6875 141.246094 C 439.800781 160.015625 435.261719 163.753906 415.785156 164.195312 C 387.71875 164.773438 379.757812 173.9375 378.246094 196.175781 L 379.136719 196.175781 C 385.007812 184.921875 394.878906 179.984375 411.691406 179.984375 C 432.859375 179.984375 445.757812 193.640625 445.757812 215.878906 C 445.757812 238.382812 430.769531 253.683594 408.667969 253.683594 C 384.652344 253.683594 370.375 236.113281 370.375 206.40625 C 370.375 168.109375 381.050781 150.855469 418.539062 149.339844 C 432.816406 148.71875 435.21875 146.941406 436.109375 141.246094 Z M 429.304688 217.167969 C 429.304688 197.507812 421.964844 186.703125 408.757812 186.703125 C 395.546875 186.703125 387.007812 198.710938 387.007812 217.167969 C 387.007812 235.179688 395.414062 246.746094 408.757812 246.746094 C 421.34375 246.746094 429.304688 235.492188 429.304688 217.167969 Z M 429.304688 217.167969 " fill-opacity="1" fill-rule="nonzero"/><path fill="#000000" d="M 515.273438 197.066406 C 517.671875 194.351562 518.742188 192.394531 518.742188 190.75 C 518.742188 187.769531 515.894531 188.214844 511.980469 188.214844 L 510.023438 188.214844 L 510.023438 181.453125 L 544.269531 181.453125 L 544.269531 188.214844 L 541.421875 188.214844 C 534.664062 188.214844 533.152344 189.546875 533.152344 195.417969 L 533.152344 239.40625 C 533.152344 244.34375 534.351562 245.277344 541.246094 245.277344 L 544.269531 245.277344 L 544.269531 252.039062 L 508.378906 252.039062 L 508.378906 245.277344 L 511.847656 245.277344 C 517.40625 245.277344 518.742188 244.210938 518.742188 239.40625 L 518.742188 203.378906 L 486.898438 238.339844 C 486.898438 238.339844 484.050781 241.496094 484.050781 243.007812 C 484.050781 244.789062 485.386719 245.277344 491.878906 245.277344 L 492.945312 245.277344 L 492.945312 252.039062 L 458.566406 252.039062 L 458.566406 245.277344 L 462.304688 245.277344 C 468.441406 245.277344 469.640625 244.210938 469.640625 238.828125 L 469.640625 195.464844 C 469.640625 189.460938 468.308594 188.257812 462.4375 188.257812 L 458.523438 188.257812 L 458.523438 181.496094 L 494.414062 181.496094 L 494.414062 188.257812 L 491.878906 188.257812 C 485.742188 188.257812 484.050781 189.769531 484.050781 195.464844 L 484.050781 231.355469 Z M 515.273438 197.066406 " fill-opacity="1" fill-rule="nonzero"/><path fill="#000000" d="M 622.011719 235.671875 C 618.273438 246.921875 607.601562 253.550781 593.058594 253.550781 C 571.132812 253.550781 557.03125 239.273438 557.03125 217.390625 C 557.03125 194.441406 571.578125 180.03125 595.015625 180.03125 C 609.734375 180.03125 622.011719 188.882812 622.011719 199.6875 C 622.011719 205.558594 618.097656 209.917969 612.714844 209.917969 C 607.15625 209.917969 603.242188 206.316406 603.242188 201.199219 C 603.242188 196.976562 607.15625 194.886719 607.15625 192.660156 C 607.15625 189.816406 601.730469 186.789062 596.660156 186.789062 C 582.871094 186.789062 573.53125 198.664062 573.53125 216.054688 C 573.53125 233.625 582.828125 245.320312 596.792969 245.320312 C 606.710938 245.320312 613.472656 241.140625 617.339844 232.734375 Z M 622.011719 235.671875 " fill-opacity="1" fill-rule="nonzero"/><path fill="#000000" d="M 634.152344 211.917969 L 634.152344 181.453125 L 704.6875 181.453125 L 704.6875 211.917969 L 698.550781 211.917969 C 696.148438 193.773438 692.992188 188.214844 685.472656 188.214844 L 681.738281 188.214844 C 678.136719 188.214844 676.625 190.171875 676.625 194.53125 L 676.625 238.207031 C 676.625 244.210938 677.824219 245.277344 684.71875 245.277344 L 689.210938 245.277344 L 689.210938 252.039062 L 649.582031 252.039062 L 649.582031 245.277344 L 654.699219 245.277344 C 660.257812 245.277344 662.214844 243.632812 662.214844 238.695312 L 662.214844 193.816406 C 662.214844 190.214844 660.390625 188.257812 657.277344 188.257812 L 652.917969 188.257812 C 645.714844 188.257812 642.558594 194.261719 640.289062 211.964844 L 634.152344 211.964844 Z M 634.152344 211.917969 " fill-opacity="1" fill-rule="nonzero"/><path fill="#000000" d="M 717.761719 273.03125 L 721.230469 273.03125 C 726.925781 273.03125 728.882812 271.25 728.882812 265.824219 L 728.882812 196.175781 C 728.882812 190.171875 727.234375 188.390625 721.675781 188.390625 L 717.761719 188.390625 L 717.761719 181.496094 L 742.535156 179.40625 L 742.535156 193.683594 L 743.292969 193.683594 C 748.984375 184.390625 756.8125 180.03125 767.441406 180.03125 C 787.542969 180.03125 799.417969 193.683594 799.417969 217.257812 C 799.417969 238.738281 785.320312 253.726562 765.351562 253.726562 C 755.878906 253.726562 747.648438 249.679688 743.292969 243.054688 L 742.535156 243.054688 L 743.292969 249.503906 L 743.292969 265.871094 C 743.292969 271.742188 744.492188 273.074219 750.183594 273.074219 L 754.410156 273.074219 L 754.410156 279.835938 L 717.808594 279.835938 L 717.808594 273.03125 Z M 764.105469 188.214844 C 751.339844 188.214844 743.246094 199.023438 743.246094 215.832031 L 743.246094 219.125 C 743.246094 236.382812 750.761719 246.878906 763.082031 246.878906 C 775.402344 246.878906 782.871094 235.625 782.871094 217.167969 C 782.871094 198.265625 776.289062 188.214844 764.105469 188.214844 Z M 764.105469 188.214844 " fill-opacity="1" fill-rule="nonzero"/><path fill="#000000" d="M 849.808594 253.503906 C 827.746094 253.503906 812.136719 238.339844 812.136719 216.722656 C 812.136719 195.550781 828.058594 179.941406 849.808594 179.941406 C 871.554688 179.941406 887.476562 195.550781 887.476562 216.722656 C 887.476562 237.894531 871.597656 253.503906 849.808594 253.503906 Z M 849.808594 246.746094 C 863.328125 246.746094 870.976562 235.9375 870.976562 216.722656 C 870.976562 197.820312 863.195312 186.703125 849.808594 186.703125 C 836.152344 186.703125 828.636719 197.375 828.636719 216.722656 C 828.636719 235.804688 836.285156 246.746094 849.808594 246.746094 Z M 849.808594 246.746094 " fill-opacity="1" fill-rule="nonzero"/><path fill="#000000" d="M 943.292969 123.8125 L 950.808594 123.8125 L 950.808594 286.550781 L 943.292969 286.550781 Z M 943.292969 123.8125 " fill-opacity="1" fill-rule="nonzero"/><path fill="#000000" d="M 1062.617188 211.917969 C 1060.082031 192.394531 1056.746094 188.214844 1044.160156 188.214844 L 1037.84375 188.214844 C 1034.109375 188.214844 1032.285156 190.304688 1032.285156 194.53125 L 1032.285156 238.207031 C 1032.285156 244.210938 1033.484375 245.277344 1040.378906 245.277344 L 1047.894531 245.277344 L 1047.894531 252.039062 L 1006.757812 252.039062 L 1006.757812 245.277344 L 1010.359375 245.277344 C 1015.917969 245.277344 1017.875 243.632812 1017.875 238.695312 L 1017.875 196.796875 C 1017.875 190.214844 1015.917969 188.257812 1009.914062 188.257812 L 1006.757812 188.257812 L 1006.757812 181.496094 L 1068.753906 181.496094 L 1068.753906 211.964844 L 1062.617188 211.964844 Z M 1062.617188 211.917969 " fill-opacity="1" fill-rule="nonzero"/><path fill="#000000" d="M 1118.296875 253.503906 C 1096.238281 253.503906 1080.628906 238.339844 1080.628906 216.722656 C 1080.628906 195.550781 1096.550781 179.941406 1118.296875 179.941406 C 1140.046875 179.941406 1155.96875 195.550781 1155.96875 216.722656 C 1155.96875 237.894531 1140.089844 253.503906 1118.296875 253.503906 Z M 1118.296875 246.746094 C 1131.816406 246.746094 1139.46875 235.9375 1139.46875 216.722656 C 1139.46875 197.820312 1131.683594 186.703125 1118.296875 186.703125 C 1104.644531 186.703125 1097.128906 197.375 1097.128906 216.722656 C 1097.128906 235.804688 1104.777344 246.746094 1118.296875 246.746094 Z M 1118.296875 246.746094 " fill-opacity="1" fill-rule="nonzero"/><path fill="#000000" d="M 1233.707031 235.671875 C 1229.972656 246.921875 1219.296875 253.550781 1204.753906 253.550781 C 1182.828125 253.550781 1168.730469 239.273438 1168.730469 217.390625 C 1168.730469 194.441406 1183.273438 180.03125 1206.710938 180.03125 C 1221.433594 180.03125 1233.753906 188.882812 1233.753906 199.6875 C 1233.753906 205.558594 1229.839844 209.917969 1224.457031 209.917969 C 1218.898438 209.917969 1214.984375 206.316406 1214.984375 201.199219 C 1214.984375 196.976562 1218.898438 194.886719 1218.898438 192.660156 C 1218.898438 189.816406 1213.515625 186.789062 1208.402344 186.789062 C 1194.570312 186.789062 1185.277344 198.664062 1185.277344 216.054688 C 1185.277344 233.625 1194.570312 245.320312 1208.535156 245.320312 C 1218.453125 245.320312 1225.214844 241.140625 1229.082031 232.734375 Z M 1233.707031 235.671875 " fill-opacity="1" fill-rule="nonzero"/><path fill="#000000" d="M 1245.847656 211.917969 L 1245.847656 181.453125 L 1316.386719 181.453125 L 1316.386719 211.917969 L 1310.246094 211.917969 C 1307.847656 193.773438 1304.6875 188.214844 1297.171875 188.214844 L 1293.4375 188.214844 C 1289.835938 188.214844 1288.320312 190.171875 1288.320312 194.53125 L 1288.320312 238.207031 C 1288.320312 244.210938 1289.523438 245.277344 1296.417969 245.277344 L 1300.910156 245.277344 L 1300.910156 252.039062 L 1261.28125 252.039062 L 1261.28125 245.277344 L 1266.394531 245.277344 C 1271.957031 245.277344 1273.914062 243.632812 1273.914062 238.695312 L 1273.914062 193.816406 C 1273.914062 190.214844 1272.089844 188.257812 1268.976562 188.257812 L 1264.617188 188.257812 C 1257.414062 188.257812 1254.253906 194.261719 1252.03125 211.964844 L 1245.847656 211.964844 Z M 1245.847656 211.917969 " fill-opacity="1" fill-rule="nonzero"/><path fill="#000000" d="M 1344.183594 217.925781 C 1345.070312 235.625 1354.675781 245.855469 1368.640625 245.855469 C 1377.9375 245.855469 1386.210938 240.917969 1389.945312 232.957031 L 1395.636719 235.671875 C 1392.347656 246.167969 1379.136719 254.128906 1364.863281 254.128906 C 1342.492188 254.128906 1328.527344 239.71875 1328.527344 216.769531 C 1328.527344 194.839844 1343.558594 179.40625 1365.171875 179.40625 C 1384.964844 179.40625 1397.90625 193.238281 1397.90625 214.542969 L 1397.90625 218.011719 L 1344.183594 218.011719 Z M 1344.316406 211.164062 L 1377.179688 211.164062 C 1380.472656 211.164062 1381.671875 209.828125 1381.671875 206.359375 C 1381.671875 194.039062 1375.089844 186.078125 1364.863281 186.078125 C 1354.542969 186.125 1345.515625 195.109375 1344.316406 211.164062 Z M 1344.316406 211.164062 " fill-opacity="1" fill-rule="nonzero"/><path fill="#000000" d="M 1455.855469 181.453125 C 1472.535156 181.453125 1481.519531 187.589844 1481.519531 199.023438 C 1481.519531 206.984375 1473.421875 213.433594 1462.617188 214.1875 L 1462.617188 215.078125 C 1476.402344 215.96875 1483.785156 222.417969 1483.785156 233.535156 C 1483.785156 245.542969 1472.535156 251.992188 1451.941406 251.992188 L 1410.671875 251.992188 L 1410.671875 245.234375 L 1414.273438 245.234375 C 1419.652344 245.234375 1421.789062 243.277344 1421.789062 237.714844 L 1421.789062 194.929688 C 1421.789062 189.816406 1419.832031 188.167969 1413.828125 188.167969 L 1410.671875 188.167969 L 1410.671875 181.410156 L 1455.855469 181.410156 Z M 1436.199219 211.785156 L 1449.851562 211.785156 C 1460.527344 211.785156 1466.085938 207.871094 1466.085938 200.355469 C 1466.085938 192.839844 1460.214844 188.214844 1450.917969 188.214844 L 1442.070312 188.214844 C 1437.398438 188.214844 1436.199219 189.414062 1436.199219 193.90625 Z M 1436.199219 218.992188 L 1436.199219 237.003906 C 1436.199219 243.765625 1437.53125 245.277344 1444.292969 245.277344 L 1451.632812 245.277344 C 1460.480469 245.277344 1467.554688 239.40625 1467.554688 231.933594 C 1467.554688 223.394531 1461.550781 219.035156 1449.675781 219.035156 L 1436.199219 219.035156 Z M 1436.199219 218.992188 " fill-opacity="1" fill-rule="nonzero"/><path fill="#000000" d="M 1535.375 253.503906 C 1513.316406 253.503906 1497.707031 238.339844 1497.707031 216.722656 C 1497.707031 195.550781 1513.628906 179.941406 1535.375 179.941406 C 1557.125 179.941406 1573.046875 195.550781 1573.046875 216.722656 C 1573.046875 237.894531 1557.167969 253.503906 1535.375 253.503906 Z M 1535.375 246.746094 C 1548.894531 246.746094 1556.546875 235.9375 1556.546875 216.722656 C 1556.546875 197.820312 1548.761719 186.703125 1535.375 186.703125 C 1521.722656 186.703125 1514.207031 197.375 1514.207031 216.722656 C 1514.207031 235.804688 1521.855469 246.746094 1535.375 246.746094 Z M 1535.375 246.746094 " fill-opacity="1" fill-rule="nonzero"/><path fill="#000000" d="M 1642.558594 197.066406 C 1644.960938 194.351562 1646.027344 192.394531 1646.027344 190.75 C 1646.027344 187.769531 1643.179688 188.214844 1639.269531 188.214844 L 1637.3125 188.214844 L 1637.3125 181.453125 L 1671.554688 181.453125 L 1671.554688 188.214844 L 1668.710938 188.214844 C 1661.949219 188.214844 1660.4375 189.546875 1660.4375 195.417969 L 1660.4375 239.40625 C 1660.4375 244.34375 1661.636719 245.277344 1668.53125 245.277344 L 1671.554688 245.277344 L 1671.554688 252.039062 L 1635.664062 252.039062 L 1635.664062 245.277344 L 1639.132812 245.277344 C 1644.695312 245.277344 1646.027344 244.210938 1646.027344 239.40625 L 1646.027344 203.378906 L 1614.230469 238.339844 C 1614.230469 238.339844 1611.382812 241.496094 1611.382812 243.007812 C 1611.382812 244.789062 1612.714844 245.277344 1619.164062 245.277344 L 1620.234375 245.277344 L 1620.234375 252.039062 L 1585.855469 252.039062 L 1585.855469 245.277344 L 1589.589844 245.277344 C 1595.726562 245.277344 1596.929688 244.210938 1596.929688 238.828125 L 1596.929688 195.464844 C 1596.929688 189.460938 1595.59375 188.257812 1589.722656 188.257812 L 1585.808594 188.257812 L 1585.808594 181.496094 L 1621.699219 181.496094 L 1621.699219 188.257812 L 1619.164062 188.257812 C 1613.027344 188.257812 1611.382812 189.769531 1611.382812 195.464844 L 1611.382812 231.355469 Z M 1641.359375 160.28125 C 1641.359375 156.992188 1636.554688 156.992188 1636.554688 152.1875 C 1636.554688 148.71875 1639.578125 145.292969 1644.648438 145.292969 C 1649.898438 145.292969 1653.8125 149.207031 1653.8125 155.347656 C 1653.8125 164.195312 1643.894531 170.957031 1628.460938 170.957031 C 1612.40625 170.957031 1603.109375 164.195312 1603.109375 155.347656 C 1603.109375 149.964844 1607.023438 145.292969 1612.273438 145.292969 C 1617.832031 145.292969 1620.367188 148.761719 1620.367188 152.1875 C 1620.367188 156.992188 1615.5625 156.992188 1615.5625 160.28125 C 1615.5625 162.816406 1621.121094 164.953125 1628.460938 164.953125 C 1635.796875 164.953125 1641.359375 162.863281 1641.359375 160.28125 Z M 1641.359375 160.28125 " fill-opacity="1" fill-rule="nonzero"/><path fill="#000000" d="M 1743.382812 251.992188 C 1730.929688 251.992188 1725.679688 258.574219 1725.679688 274.496094 L 1719.230469 274.496094 L 1719.230469 244.921875 L 1729.90625 244.921875 C 1738 234.734375 1741.46875 217.746094 1741.46875 194.484375 C 1741.46875 189.683594 1739.066406 188.167969 1731.730469 188.167969 L 1729.460938 188.167969 L 1729.460938 181.410156 L 1799.109375 181.410156 L 1799.109375 188.167969 L 1793.414062 188.167969 C 1789.054688 188.167969 1788.035156 189.371094 1788.035156 193.863281 L 1788.035156 239.183594 C 1788.035156 243.410156 1789.546875 244.875 1793.59375 244.875 L 1801.6875 244.875 L 1801.6875 274.453125 L 1795.238281 274.453125 C 1795.238281 258.21875 1791.058594 251.949219 1780.074219 251.949219 L 1743.382812 251.949219 Z M 1773.578125 194.351562 C 1773.578125 189.105469 1772.824219 188.214844 1767.574219 188.214844 L 1756.011719 188.214844 C 1751.078125 188.214844 1749.5625 189.726562 1749.5625 194.796875 C 1749.5625 216.722656 1746.273438 234.871094 1739.203125 244.921875 L 1767.441406 244.921875 C 1772.113281 244.921875 1773.578125 243.585938 1773.578125 239.363281 Z M 1773.578125 194.351562 " fill-opacity="1" fill-rule="nonzero"/><path fill="#000000" d="M 1850.253906 253.503906 C 1828.195312 253.503906 1812.582031 238.339844 1812.582031 216.722656 C 1812.582031 195.550781 1828.503906 179.941406 1850.253906 179.941406 C 1872 179.941406 1887.921875 195.550781 1887.921875 216.722656 C 1887.921875 237.894531 1872 253.503906 1850.253906 253.503906 Z M 1850.253906 246.746094 C 1863.773438 246.746094 1871.421875 235.9375 1871.421875 216.722656 C 1871.421875 197.820312 1863.640625 186.703125 1850.253906 186.703125 C 1836.601562 186.703125 1829.082031 197.375 1829.082031 216.722656 C 1829.082031 235.804688 1836.734375 246.746094 1850.253906 246.746094 Z M 1850.253906 246.746094 " fill-opacity="1" fill-rule="nonzero"/><path fill="#000000" d="M 1948.542969 249.011719 L 1944.9375 249.011719 L 1918.386719 186.878906 L 1918.386719 235.671875 C 1918.386719 242.875 1920.789062 245.277344 1927.683594 245.277344 L 1928.75 245.277344 L 1928.75 252.039062 L 1899.796875 252.039062 L 1899.796875 245.277344 L 1901.886719 245.277344 C 1908.78125 245.277344 1910.871094 243.007812 1910.871094 235.535156 L 1910.871094 196.976562 C 1910.871094 190.082031 1909.046875 188.257812 1902.777344 188.257812 L 1899.753906 188.257812 L 1899.753906 181.496094 L 1929.773438 181.496094 L 1950.054688 229.976562 L 1969.710938 181.496094 L 1998.839844 181.496094 L 1998.839844 188.257812 L 1995.550781 188.257812 C 1989.414062 188.257812 1987.765625 189.769531 1987.765625 195.019531 L 1987.765625 238.117188 C 1987.765625 244.121094 1988.96875 245.320312 1995.285156 245.320312 L 1998.886719 245.320312 L 1998.886719 252.082031 L 1964.507812 252.082031 L 1964.507812 245.320312 L 1966.597656 245.320312 C 1972.601562 245.320312 1974.113281 243.988281 1974.113281 238.5625 L 1974.113281 187.058594 Z M 1948.542969 249.011719 " fill-opacity="1" fill-rule="nonzero"/></svg>